<svg width="159" height="20" viewBox="0 0 159 20" fill="none" xmlns="http://www.w3.org/2000/svg">
<path d="M7.138 0.852C9.04467 0.852 10.7173 1.22467 12.156 1.97C13.612 2.71533 14.73 3.78133 15.51 5.168C16.3073 6.53733 16.706 8.132 16.706 9.952C16.706 11.772 16.3073 13.3667 15.51 14.736C14.73 16.088 13.612 17.1367 12.156 17.882C10.7173 18.6273 9.04467 19 7.138 19H0.794V0.852H7.138ZM7.008 15.906C8.91467 15.906 10.388 15.386 11.428 14.346C12.468 13.306 12.988 11.8413 12.988 9.952C12.988 8.06267 12.468 6.58933 11.428 5.532C10.388 4.45733 8.91467 3.92 7.008 3.92H4.434V15.906H7.008ZM25.3067 19.234C23.9201 19.234 22.6721 18.9307 21.5627 18.324C20.4534 17.7 19.5781 16.8247 18.9367 15.698C18.3127 14.5713 18.0007 13.2713 18.0007 11.798C18.0007 10.3247 18.3214 9.02467 18.9627 7.898C19.6214 6.77133 20.5141 5.90467 21.6407 5.298C22.7674 4.674 24.0241 4.362 25.4107 4.362C26.7974 4.362 28.0541 4.674 29.1807 5.298C30.3074 5.90467 31.1914 6.77133 31.8327 7.898C32.4914 9.02467 32.8207 10.3247 32.8207 11.798C32.8207 13.2713 32.4827 14.5713 31.8067 15.698C31.1481 16.8247 30.2467 17.7 29.1027 18.324C27.9761 18.9307 26.7107 19.234 25.3067 19.234ZM25.3067 16.062C25.9654 16.062 26.5807 15.906 27.1527 15.594C27.7421 15.2647 28.2101 14.7793 28.5567 14.138C28.9034 13.4967 29.0767 12.7167 29.0767 11.798C29.0767 10.4287 28.7127 9.38 27.9847 8.652C27.2741 7.90667 26.3987 7.534 25.3587 7.534C24.3187 7.534 23.4434 7.90667 22.7327 8.652C22.0394 9.38 21.6927 10.4287 21.6927 11.798C21.6927 13.1673 22.0307 14.2247 22.7067 14.97C23.4001 15.698 24.2667 16.062 25.3067 16.062ZM41.3668 19.234C39.9801 19.234 38.7321 18.9307 37.6228 18.324C36.5135 17.7 35.6381 16.8247 34.9968 15.698C34.3728 14.5713 34.0608 13.2713 34.0608 11.798C34.0608 10.3247 34.3815 9.02467 35.0228 7.898C35.6815 6.77133 36.5741 5.90467 37.7008 5.298C38.8275 4.674 40.0841 4.362 41.4708 4.362C42.8575 4.362 44.1141 4.674 45.2408 5.298C46.3675 5.90467 47.2515 6.77133 47.8928 7.898C48.5515 9.02467 48.8808 10.3247 48.8808 11.798C48.8808 13.2713 48.5428 14.5713 47.8668 15.698C47.2081 16.8247 46.3068 17.7 45.1628 18.324C44.0361 18.9307 42.7708 19.234 41.3668 19.234ZM41.3668 16.062C42.0255 16.062 42.6408 15.906 43.2128 15.594C43.8021 15.2647 44.2701 14.7793 44.6168 14.138C44.9635 13.4967 45.1368 12.7167 45.1368 11.798C45.1368 10.4287 44.7728 9.38 44.0448 8.652C43.3341 7.90667 42.4588 7.534 41.4188 7.534C40.3788 7.534 39.5035 7.90667 38.7928 8.652C38.0995 9.38 37.7528 10.4287 37.7528 11.798C37.7528 13.1673 38.0908 14.2247 38.7668 14.97C39.4601 15.698 40.3268 16.062 41.3668 16.062ZM68.9189 4.388C70.6869 4.388 72.1082 4.934 73.1829 6.026C74.2749 7.10067 74.8209 8.60867 74.8209 10.55V19H71.1809V11.044C71.1809 9.91733 70.8949 9.05933 70.3229 8.47C69.7509 7.86333 68.9709 7.56 67.9829 7.56C66.9949 7.56 66.2062 7.86333 65.6169 8.47C65.0449 9.05933 64.7589 9.91733 64.7589 11.044V19H61.1189V11.044C61.1189 9.91733 60.8329 9.05933 60.2609 8.47C59.6889 7.86333 58.9089 7.56 57.9209 7.56C56.9155 7.56 56.1182 7.86333 55.5289 8.47C54.9569 9.05933 54.6709 9.91733 54.6709 11.044V19H51.0309V4.596H54.6709V6.338C55.1389 5.73133 55.7369 5.25467 56.4649 4.908C57.2102 4.56133 58.0249 4.388 58.9089 4.388C60.0355 4.388 61.0409 4.63067 61.9249 5.116C62.8089 5.584 63.4935 6.26 63.9789 7.144C64.4469 6.312 65.1229 5.64467 66.0069 5.142C66.9082 4.63933 67.8789 4.388 68.9189 4.388ZM79.263 1.736V9.354H86.543V10.342H79.263V18.012H87.323V19H78.093V0.747999H87.323V1.736H79.263ZM107.037 4.596C108.649 4.596 109.966 5.116 110.989 6.156C112.011 7.17867 112.523 8.704 112.523 10.732V19H111.379V10.81C111.379 9.12867 110.971 7.846 110.157 6.962C109.359 6.06067 108.259 5.61 106.855 5.61C105.399 5.61 104.229 6.11267 103.345 7.118C102.461 8.12333 102.019 9.57933 102.019 11.486V19H100.875V10.81C100.875 9.12867 100.467 7.846 99.6525 6.962C98.8552 6.06067 97.7545 5.61 96.3505 5.61C94.8945 5.61 93.7245 6.11267 92.8405 7.118C91.9565 8.12333 91.5145 9.57933 91.5145 11.486V19H90.3445V4.882H91.5145V7.95C91.9132 6.84067 92.5545 6.00867 93.4385 5.454C94.3398 4.882 95.3712 4.596 96.5325 4.596C97.8152 4.596 98.9158 4.934 99.8345 5.61C100.771 6.26867 101.412 7.248 101.759 8.548C102.088 7.248 102.729 6.26867 103.683 5.61C104.636 4.934 105.754 4.596 107.037 4.596ZM115.427 11.928C115.427 10.472 115.713 9.198 116.285 8.106C116.874 7.014 117.68 6.17333 118.703 5.584C119.743 4.99467 120.921 4.7 122.239 4.7C123.729 4.7 124.995 5.064 126.035 5.792C127.075 6.52 127.803 7.44733 128.219 8.574V4.882H129.389V19H128.219V15.282C127.803 16.426 127.066 17.3707 126.009 18.116C124.969 18.844 123.712 19.208 122.239 19.208C120.921 19.208 119.743 18.9133 118.703 18.324C117.68 17.7173 116.874 16.868 116.285 15.776C115.713 14.6667 115.427 13.384 115.427 11.928ZM128.219 11.928C128.219 10.6973 127.959 9.614 127.439 8.678C126.936 7.72467 126.243 6.99667 125.359 6.494C124.475 5.974 123.487 5.714 122.395 5.714C121.251 5.714 120.245 5.96533 119.379 6.468C118.512 6.95333 117.836 7.664 117.351 8.6C116.865 9.536 116.623 10.6453 116.623 11.928C116.623 13.2107 116.865 14.32 117.351 15.256C117.836 16.192 118.512 16.9113 119.379 17.414C120.263 17.9167 121.268 18.168 122.395 18.168C123.487 18.168 124.475 17.9167 125.359 17.414C126.26 16.894 126.962 16.166 127.465 15.23C127.967 14.2767 128.219 13.176 128.219 11.928ZM132.401 11.928C132.401 10.4547 132.687 9.172 133.259 8.08C133.848 6.988 134.654 6.156 135.677 5.584C136.717 4.99467 137.904 4.7 139.239 4.7C141.007 4.7 142.454 5.142 143.581 6.026C144.725 6.91 145.435 8.09733 145.713 9.588H144.491C144.265 8.37467 143.676 7.42133 142.723 6.728C141.787 6.03467 140.625 5.688 139.239 5.688C138.199 5.688 137.254 5.922 136.405 6.39C135.555 6.84067 134.871 7.54267 134.351 8.496C133.848 9.432 133.597 10.576 133.597 11.928C133.597 13.2973 133.848 14.45 134.351 15.386C134.871 16.322 135.555 17.024 136.405 17.492C137.254 17.96 138.199 18.194 139.239 18.194C140.625 18.194 141.787 17.8473 142.723 17.154C143.676 16.4607 144.265 15.5073 144.491 14.294H145.713C145.435 15.7673 144.725 16.9547 143.581 17.856C142.437 18.7573 140.989 19.208 139.239 19.208C137.904 19.208 136.717 18.9133 135.677 18.324C134.654 17.7347 133.848 16.894 133.259 15.802C132.687 14.6927 132.401 13.4013 132.401 11.928ZM153.463 19.208C151.886 19.208 150.594 18.8613 149.589 18.168C148.601 17.4747 148.046 16.4867 147.925 15.204H149.121C149.208 16.1227 149.624 16.8507 150.369 17.388C151.132 17.9253 152.163 18.194 153.463 18.194C154.538 18.194 155.387 17.9253 156.011 17.388C156.652 16.8333 156.973 16.1573 156.973 15.36C156.973 14.8053 156.8 14.3547 156.453 14.008C156.124 13.644 155.708 13.3667 155.205 13.176C154.702 12.9853 154.018 12.7773 153.151 12.552C152.111 12.2747 151.27 12.006 150.629 11.746C149.988 11.4687 149.442 11.0613 148.991 10.524C148.54 9.98667 148.315 9.26733 148.315 8.366C148.315 7.70733 148.514 7.10067 148.913 6.546C149.312 5.974 149.866 5.52333 150.577 5.194C151.288 4.86467 152.094 4.7 152.995 4.7C154.468 4.7 155.656 5.07267 156.557 5.818C157.476 6.546 157.97 7.56 158.039 8.86H156.869C156.817 7.924 156.453 7.16133 155.777 6.572C155.101 5.98267 154.165 5.688 152.969 5.688C151.964 5.688 151.132 5.948 150.473 6.468C149.814 6.988 149.485 7.62067 149.485 8.366C149.485 9.02467 149.667 9.562 150.031 9.978C150.412 10.3767 150.872 10.6887 151.409 10.914C151.964 11.122 152.692 11.3473 153.593 11.59C154.581 11.85 155.37 12.11 155.959 12.37C156.566 12.6127 157.077 12.9767 157.493 13.462C157.909 13.93 158.117 14.5627 158.117 15.36C158.117 16.088 157.918 16.7467 157.519 17.336C157.12 17.9253 156.566 18.3847 155.855 18.714C155.144 19.0433 154.347 19.208 153.463 19.208Z" fill="white"/>
</svg>
